# xmcd
#
# Track frame offsets:
#	150
#	22789
#	65507
#	77938
#	94999
#	126327
#	152297
#	162625
#	178238
#
# Disc length: 2720 seconds
#
# Revision: 0
# Processed by: cddbd v1.5.2PL0 Copyright (c) Steve Scherf et al.
# Submitted via: dBpowerAMP V4.0
#
DISCID=710a9e09
DTITLE=Pastor Chris - Moments of Worship
DYEAR=2004
DGENRE=Gospel
TTITLE0=Holy Spirit
TTITLE1=My Hope Is Built on Nothing Else
TTITLE2=I Believe in Miracles
TTITLE3=The Annointing
TTITLE4=When We All Get To Heaven
TTITLE5=Sweet Jesus
TTITLE6=Trust And Obey
TTITLE7=Come Home Sinner
TTITLE8=Sweet Jesus(Instrumental)
EXTD=Moments of Worship
EXTT0=
EXTT1=
EXTT2=
EXTT3=
EXTT4=
EXTT5=
EXTT6=
EXTT7=
EXTT8=
PLAYORDER=
